<svg xmlns="http://www.w3.org/2000/svg" viewBox="0 0 1024 1024">
  <style>
    path { fill: #000000; }
    @media (prefers-color-scheme: dark) {
      path { fill: #ffffff; }
    }
  </style>
  <path d="M303.606781,816.592285 C287.551727,807.723022 278.577820,794.134399 278.100983,776.485046 C277.612885,758.417603 285.885468,744.032471 301.934723,734.884094 C305.240509,732.999756 306.696472,730.866028 306.685944,727.020325 C306.537750,672.857361 306.463196,618.693970 306.514557,564.530884 C306.520050,558.724976 304.904968,555.011902 299.450684,551.776306 C271.857239,535.407288 271.112396,492.694275 298.472778,475.227417 C305.474762,470.757355 306.524048,465.693268 306.527252,458.959106 C306.551331,408.485443 306.570435,358.011749 306.591003,307.538086 C306.591736,305.704834 306.546051,303.870300 306.599609,302.038605 C306.763275,296.440430 305.465240,292.520111 299.765106,289.154602 C282.479614,278.948792 274.486145,257.155365 279.994263,238.452011 C286.104370,217.704514 303.123657,204.847366 324.235504,204.635437 C343.140778,204.445679 356.637482,213.181427 365.736938,229.237823 C367.207031,231.831879 368.791595,232.699280 371.597717,232.695770 C423.261902,232.631012 474.926300,232.602432 526.590393,232.695328 C530.190735,232.701797 531.824890,231.045883 533.505249,228.216293 C550.192200,200.116989 587.782715,196.154480 609.136047,220.210678 C613.497803,225.124588 616.653076,230.810638 618.258362,237.227127 C618.960754,240.034454 620.286865,241.720993 623.184753,242.803162 C666.561157,259.001495 696.048767,288.904755 711.284241,332.695831 C712.479980,336.132660 713.768433,338.654694 717.744690,340.030914 C735.964111,346.336792 747.913452,364.069275 747.670471,383.638611 C747.434204,402.670013 735.370483,419.793030 717.512573,426.135040 C714.683472,427.139771 712.663940,428.230164 711.540100,431.351410 C698.670959,467.094696 675.360962,493.796478 641.707214,511.461060 C640.888916,511.890594 639.740295,512.009705 639.362793,513.441467 C647.710754,517.788940 655.892395,522.488708 663.416321,528.286621 C685.344482,545.184387 701.423828,566.439636 711.075012,592.392639 C712.824829,597.098083 715.101440,600.011902 720.095886,601.841431 C735.850952,607.612793 748.147339,626.047119 747.851196,644.026184 C747.545654,662.577942 739.746521,677.247742 722.302612,685.311951 C717.923462,687.336365 715.799316,690.012573 714.208008,694.427734 C696.510498,743.531616 662.401184,775.206360 612.240662,789.574646 C597.646851,793.755005 582.588196,793.664856 567.628601,793.734558 C521.637329,793.948853 475.644592,793.868591 429.652435,793.890686 C409.986908,793.900146 390.321014,793.934204 370.656219,793.808960 C367.972198,793.791870 366.504395,794.553833 365.169464,796.955078 C352.467743,819.803284 327.853455,827.710022 303.606781,816.592285 M675.832825,682.741821 C650.450317,667.235718 647.091614,626.830933 673.647827,607.403259 C676.729797,605.148621 676.905640,602.960205 675.360657,599.762451 C662.854248,573.877014 644.039307,554.550293 617.426941,543.010010 C613.158569,541.159058 610.750854,541.869690 607.587341,545.135132 C585.947388,567.471924 549.592346,562.839600 534.281616,535.869019 C532.393860,532.543579 530.252502,531.191895 526.411316,531.198486 C475.086517,531.286621 423.761414,531.268738 372.436646,531.150391 C368.791931,531.141968 366.657043,532.300964 364.966644,535.549927 C360.695526,543.759155 354.311035,550.030762 345.944580,554.021179 C343.044220,555.404480 342.264252,557.246948 342.267670,560.255432 C342.331207,616.246277 342.333984,672.237305 342.246155,728.228027 C342.240936,731.567078 343.502991,733.356140 346.412750,734.765137 C354.294830,738.581970 360.476227,744.455872 364.292542,752.275208 C366.383453,756.559265 368.970276,757.767273 373.538483,757.757629 C440.360596,757.616455 507.184113,757.447632 574.005066,757.762695 C598.930542,757.880310 621.254578,750.962769 641.219177,736.271851 C657.699341,724.144897 669.908081,708.612183 677.597839,689.588684 C678.586609,687.142578 679.478210,684.812744 675.832825,682.741821 M638.332764,291.187042 C631.795776,286.227203 624.685547,282.286163 617.226685,278.873474 C613.666077,277.244324 611.527161,277.623932 608.804626,280.827087 C588.782959,304.382965 549.200562,300.739929 534.101318,273.956421 C531.983337,270.199341 529.678589,268.875854 525.499878,268.906952 C501.671478,269.084412 477.841187,269.021667 454.011536,269.025635 C427.015717,269.030090 400.019867,269.008362 373.024048,269.030212 C370.254700,269.032471 367.319763,268.557281 365.801392,272.019531 C361.940582,280.823059 354.882812,286.603180 346.769714,291.147858 C343.633911,292.904419 342.257233,294.933380 342.263306,298.617157 C342.354797,354.275146 342.344543,409.933380 342.256226,465.591431 C342.251099,468.831909 343.166077,470.679626 346.203156,472.161469 C354.193146,476.059937 360.509277,482.072205 364.543335,489.945679 C366.564758,493.890961 368.981323,494.910187 373.109009,494.900726 C424.100891,494.783966 475.093262,494.789520 526.085144,494.899384 C530.048218,494.907898 532.241211,493.698730 534.324158,490.136444 C543.162842,475.020172 556.635193,467.105530 574.142700,466.757568 C587.677429,466.488495 599.082397,471.781525 608.320984,481.655762 C610.353149,483.827728 612.151245,485.552582 615.590454,484.081421 C642.337585,472.640381 661.737732,453.628662 674.494873,427.601654 C676.416626,423.680817 675.779602,421.337189 672.206604,418.448303 C649.378906,399.991547 649.897339,364.644318 673.161499,346.839142 C676.275757,344.455658 676.772888,342.357971 675.357056,338.861786 C667.595825,319.696960 655.502441,303.930664 638.332764,291.187042z"/>
</svg>
